<svg
  width="100"
  height="100"
  viewBox="0 0 100 100"
  xmlns="http://www.w3.org/2000/svg"
>
  <rect width="100" height="100" rx="14" fill="#E8AEAE" />
  <g
    id="svgGroup"
    stroke-linecap="round"
    fill-rule="evenodd"
    font-size="7pt"
    stroke="#ffffff"
    stroke-width="0.25mm"
    fill="#ffffff"
    style="stroke: #ffffff; stroke-width: 0.25mm; fill: #ffffff"
  >
    <path
      d="M 57.2 87 L 57.2 23 L 65.9 28 L 74.6 23 L 65.9 28 L 65.9 92 L 65.9 28 L 57.2 23 L 57.2 87 Q 57.2 88.438 57.536 89.552 A 4.877 4.877 0 0 0 59.8 92.5 L 68.5 97.5 Q 70.589 98.705 73.26 97.651 A 10.443 10.443 0 0 0 74.6 97 L 96.2 84.5 A 12.458 12.458 0 0 0 98.545 82.766 A 16.842 16.842 0 0 0 100.45 80.65 Q 102.4 78.1 103.65 75.1 A 20.878 20.878 0 0 0 103.722 74.924 Q 104.258 73.605 104.55 72.364 A 12.499 12.499 0 0 0 104.9 69.5 L 104.9 5.5 L 96.2 10.5 L 96.2 74.5 L 74.6 87 L 74.6 23 L 65.9 18 L 57.2 23 M 0 63 L 0 23 L 8.7 28 L 17.4 23 L 8.7 28 L 8.7 68 L 8.7 28 L 0 23 L 0 63 Q 0 64.438 0.336 65.552 A 4.877 4.877 0 0 0 2.6 68.5 L 11.3 73.5 Q 13.389 74.705 16.06 73.651 A 10.443 10.443 0 0 0 17.4 73 L 24.3 69 L 24.3 99 L 32.9 94 L 32.9 64 L 39.9 60 A 12.458 12.458 0 0 0 42.245 58.266 A 16.842 16.842 0 0 0 44.15 56.15 Q 46.1 53.6 47.3 50.6 Q 47.863 49.194 48.161 47.875 A 13.002 13.002 0 0 0 48.5 45 L 48.5 5 L 39.9 10 L 39.9 50 L 17.4 63 L 17.4 23 L 8.7 18 L 0 23 M 74.6 87 L 96.2 74.5 L 96.2 10.5 L 104.9 5.5 L 96.2 0.5 L 87.5 5.5 L 96.2 10.5 L 87.5 5.5 L 87.5 69.5 L 96.2 74.5 L 87.5 69.5 L 65.9 82 L 74.6 87 Z M 17.4 63 L 39.9 50 L 39.9 10 L 48.5 5 L 39.9 0 L 31.2 5 L 39.9 10 L 31.2 5 L 31.2 45 L 39.9 50 L 31.2 45 L 8.7 58 L 17.4 63 Z M 24.3 69 L 15.6 64 L 15.6 94 L 24.3 99 L 24.3 69 Z M 65.9 92 Q 65.9 93.438 66.236 94.552 A 4.877 4.877 0 0 0 68.5 97.5 A 4.695 4.695 0 0 1 66.935 96.053 Q 65.9 94.524 65.9 92 Z M 8.7 68 Q 8.7 69.438 9.036 70.552 A 4.877 4.877 0 0 0 11.3 73.5 A 4.695 4.695 0 0 1 9.735 72.053 Q 8.7 70.524 8.7 68 Z"
      vector-effect="non-scaling-stroke"
    />
  </g>
</svg>
